<svg xmlns="http://www.w3.org/2000/svg" width="40" height="40" viewBox="0 0 40 40">
    <defs>
        <style>
            .cls-2{fill:#fff}
        </style>
    </defs>
    <g id="그룹_531" transform="translate(-879 -162)">
        <g id="location" transform="translate(853.804 164.781)">
            <g id="그룹_162" transform="translate(31)">
                <g id="그룹_161">
                    <path id="패스_92" d="M51.144 21.948c3.535-5.547 3.091-4.855 3.192-5A10.625 10.625 0 0 0 56.3 10.77a10.705 10.705 0 1 0-19.387 6.257l3.136 4.921C36.7 22.463 31 24 31 27.379c0 1.232.8 2.989 4.636 4.357a30.717 30.717 0 0 0 9.964 1.483c7.009 0 14.6-1.977 14.6-5.839 0-3.38-5.7-4.916-9.056-5.432zm-12.6-5.991q-.016-.025-.034-.049a8.759 8.759 0 1 1 14.249-.1c-.094.124.4-.636-7.16 11.219zM45.6 31.272c-7.655 0-12.652-2.25-12.652-3.893 0-1.1 2.567-2.919 8.256-3.627l3.575 5.61a.973.973 0 0 0 1.641 0l3.575-5.61c5.689.708 8.256 2.523 8.256 3.627-.001 1.629-4.951 3.893-12.651 3.893z" class="cls-2" transform="translate(-31)"/>
                </g>
            </g>
            <g id="그룹_164" transform="translate(40.732 5.904)">
                <g id="그룹_163">
                    <path id="패스_93" d="M185.866 91a4.866 4.866 0 1 0 4.866 4.866A4.872 4.872 0 0 0 185.866 91zm0 7.786a2.92 2.92 0 1 1 2.92-2.92 2.923 2.923 0 0 1-2.92 2.92z" class="cls-2" transform="translate(-181 -91)"/>
                </g>
            </g>
        </g>
    </g>
</svg>
