<svg xmlns="http://www.w3.org/2000/svg" width="14.559" height="11.474" viewBox="0 0 14.559 11.474">
    <g>
        <path d="M7.281 54.254a5.734 5.734 0 1 0 0 11.043 5.733 5.733 0 1 0 0-11.043zM.856 59.776A4.882 4.882 0 0 1 5.814 54.9a5.729 5.729 0 0 0 0 9.752 4.882 4.882 0 0 1-4.958-4.876zm7.969 4.877a4.877 4.877 0 1 1 4.875-4.877 4.882 4.882 0 0 1-4.874 4.877z" transform="translate(0 -54.039)"/>
        <text font-family="Helvetica-Bold, Helvetica" font-size="7px" font-weight="700" transform="translate(0 -54.039) translate(7.103 62.488)">
            <tspan x="0" y="0">P</tspan>
        </text>
    </g>
</svg>
