<svg xmlns="http://www.w3.org/2000/svg" width="40" height="40" viewBox="0 0 40 40">
    <defs>
        <style>
            .cls-3{fill:#fff}.cls-4{stroke:none}
        </style>
    </defs>
    <g id="그룹_528" transform="translate(-879 -61)">
        <g id="그룹_157" transform="translate(882 65)">
            <g id="합치기_3" fill="none">
                <path d="M8.507 1.86L2 0a2 2 0 0 0-2 2l1.859 6.508A15.992 15.992 0 1 0 8.507 1.86z" class="cls-4" transform="rotate(180 16 16)"/>
                <path fill="#fff" d="M16 2c-2.285 0-4.552.562-6.555 1.626l-.712.378-.775-.221-5.846-1.67 1.67 5.845.222.775-.378.713C2.562 11.449 2 13.716 2 16c0 3.74 1.456 7.256 4.1 9.9C8.746 28.544 12.26 30 16 30s7.255-1.456 9.9-4.1c2.644-2.644 4.1-6.16 4.1-9.9s-1.456-7.255-4.1-9.9C23.255 3.457 19.74 2 16 2M2 0l6.507 1.86C10.743.672 13.293 0 16 0c8.836 0 16 7.164 16 16 0 8.837-7.164 16-16 16S0 24.837 0 16c0-2.707.672-5.257 1.86-7.492L0 2C0 .896.896 0 2 0z" transform="rotate(180 16 16)"/>
            </g>
            <g id="그룹_75" transform="translate(8 14)">
                <circle id="타원_20" cx="2" cy="2" r="2" class="cls-3" transform="translate(12)"/>
                <circle id="타원_21" cx="2" cy="2" r="2" class="cls-3" transform="translate(6)"/>
                <circle id="타원_22" cx="2" cy="2" r="2" class="cls-3"/>
            </g>
        </g>
    </g>
</svg>
