<svg xmlns="http://www.w3.org/2000/svg" width="13.166" height="12.612" viewBox="0 0 13.166 12.612">
    <g>
        <path fill="#ffe13c" d="M13.135 5.47c-.2-.631-1.313-.776-2.49-.931a5.2 5.2 0 0 1-1.6-.344 5.214 5.214 0 0 1-.808-1.423C7.74 1.7 7.267.682 6.606.68h-.012C5.938.689 5.46 1.691 4.952 2.755a5.306 5.306 0 0 1-.82 1.416 5.288 5.288 0 0 1-1.6.328C1.353 4.642.24 4.776.033 5.4S.637 6.8 1.5 7.62a5.282 5.282 0 0 1 1.089 1.219 5.246 5.246 0 0 1-.183 1.625c-.228 1.162-.443 2.263.089 2.656a.773.773 0 0 0 .477.133 5.727 5.727 0 0 0 2.083-.842 5.226 5.226 0 0 1 1.5-.662 5.179 5.179 0 0 1 1.49.676 5.444 5.444 0 0 0 2.119.865.742.742 0 0 0 .434-.132c.536-.386.332-1.486.116-2.653a5.344 5.344 0 0 1-.168-1.628 5.325 5.325 0 0 1 1.1-1.208c.87-.808 1.69-1.569 1.489-2.199z" transform="translate(0 -.678)"/>
    </g>
</svg>
