<svg xmlns="http://www.w3.org/2000/svg" width="40" height="40" viewBox="0 0 40 40">
    <defs>
        <style>
            .cls-2{fill:#fff}
        </style>
    </defs>
    <g id="그룹_532" transform="translate(-991 -162)">
        <g id="route" transform="translate(994 164.193)">
            <path id="패스_94" d="M21.392 0a5.331 5.331 0 0 0-5.325 5.325c0 3.812 4.54 7.151 4.733 7.292a1.008 1.008 0 0 0 1.184 0c.193-.14 4.733-3.479 4.733-7.292A5.331 5.331 0 0 0 21.392 0zm0 10.513c-1.633-1.39-3.312-3.4-3.312-5.188a3.31 3.31 0 1 1 6.619 0c0 1.961-2.029 4.1-3.307 5.188z" class="cls-2" transform="translate(-14.988)"/>
            <circle id="타원_67" cx="1.008" cy="1.008" r="1.008" class="cls-2" transform="translate(5.397 4.317)"/>
            <path id="패스_95" d="M358.791 321.333a5.331 5.331 0 0 0-5.325 5.325c0 3.812 4.54 7.151 4.733 7.292a1.008 1.008 0 0 0 1.184 0c.193-.14 4.733-3.479 4.733-7.292a5.331 5.331 0 0 0-5.325-5.325zm0 10.513c-1.633-1.39-3.312-3.4-3.312-5.188a3.31 3.31 0 1 1 6.619 0c.002 1.961-2.027 4.101-3.304 5.188z" class="cls-2" transform="translate(-329.721 -299.746)"/>
            <circle id="타원_68" cx="1.008" cy="1.008" r="1.008" class="cls-2" transform="translate(28.063 25.904)"/>
            <path id="패스_96" d="M1.008 357.641a1.008 1.008 0 0 0 1.008-1.008v-2.159a1.008 1.008 0 1 0-2.015 0v2.159a1.008 1.008 0 0 0 1.007 1.008z" class="cls-2" transform="translate(0 -329.721)"/>
            <path id="패스_97" d="M99.566 257.066h-2.158a1.008 1.008 0 1 0 0 2.015h2.159a1.008 1.008 0 1 0 0-2.015z" class="cls-2" transform="translate(-89.924 -239.797)"/>
            <path id="패스_98" d="M195.966 482h-2.159a1.008 1.008 0 1 0 0 2.015h2.159a1.008 1.008 0 1 0 0-2.015z" class="cls-2" transform="translate(-179.848 -449.62)"/>
            <path id="패스_99" d="M195.966 257.066h-2.159a1.008 1.008 0 1 0 0 2.015h2.159a1.008 1.008 0 1 0 0-2.015z" class="cls-2" transform="translate(-179.848 -239.797)"/>
            <path id="패스_100" d="M292.366 482h-2.159a1.008 1.008 0 1 0 0 2.015h2.159a1.008 1.008 0 1 0 0-2.015z" class="cls-2" transform="translate(-269.772 -449.62)"/>
            <path id="패스_101" d="M195.966 128.533h-2.159a1.008 1.008 0 1 0 0 2.015h2.159a1.008 1.008 0 0 0 0-2.015z" class="cls-2" transform="translate(-179.848 -119.898)"/>
            <path id="패스_102" d="M99.566 482h-2.158a1.008 1.008 0 1 0 0 2.015h2.159a1.008 1.008 0 1 0 0-2.015z" class="cls-2" transform="translate(-89.924 -449.62)"/>
            <path id="패스_103" d="M290.216 128.533a1.008 1.008 0 0 0 0 2.015 1.151 1.151 0 0 1 1.15 1.151 1.008 1.008 0 1 0 2.015 0 3.169 3.169 0 0 0-3.165-3.166z" class="cls-2" transform="translate(-269.779 -119.898)"/>
            <path id="패스_104" d="M3.165 257.066A3.169 3.169 0 0 0 0 260.232a1.008 1.008 0 1 0 2.015 0 1.151 1.151 0 0 1 1.15-1.15 1.008 1.008 0 1 0 0-2.015z" class="cls-2" transform="translate(0 -239.797)"/>
            <path id="패스_105" d="M292.374 224.941a1.008 1.008 0 0 0-1.008 1.008 1.151 1.151 0 0 1-1.15 1.15 1.008 1.008 0 0 0 0 2.015 3.169 3.169 0 0 0 3.165-3.166 1.007 1.007 0 0 0-1.007-1.007z" class="cls-2" transform="translate(-269.779 -209.83)"/>
            <path id="패스_106" d="M3.165 452.032a1.151 1.151 0 0 1-1.15-1.151 1.008 1.008 0 1 0-2.015 0 3.169 3.169 0 0 0 3.165 3.165 1.008 1.008 0 0 0 0-2.015z" class="cls-2" transform="translate(0 -419.652)"/>
        </g>
    </g>
</svg>
