<svg xmlns="http://www.w3.org/2000/svg" width="35" height="35" viewBox="0 0 35 35">
  <defs>
    <style>
      .cls-1 {
        fill: #fff;
      }

      .cls-2 {
        fill: #fec732;
      }
    </style>
  </defs>
  <g id="calendar" transform="translate(0)">
    <g id="그룹_219" data-name="그룹 219" transform="translate(0)">
      <path id="패스_570" data-name="패스 570" class="cls-1" d="M30.215,3.076H28.95V2.222a2.222,2.222,0,0,0-4.443,0v.854H22.8V2.222a2.222,2.222,0,0,0-4.443,0v.854H16.646V2.222a2.222,2.222,0,0,0-4.443,0v.854H10.493V2.222a2.222,2.222,0,1,0-4.443,0v.854H4.785A4.791,4.791,0,0,0,0,7.861V30.215A4.791,4.791,0,0,0,4.785,35h25.43A4.791,4.791,0,0,0,35,30.215V7.861A4.791,4.791,0,0,0,30.215,3.076Zm-4.341-.854a.854.854,0,0,1,1.709,0V5.3a.854.854,0,0,1-1.709,0Zm-6.152,0a.854.854,0,1,1,1.709,0V5.3a.854.854,0,1,1-1.709,0Zm-6.152,0a.854.854,0,1,1,1.709,0V5.3a.854.854,0,1,1-1.709,0Zm-6.152,0a.854.854,0,1,1,1.709,0V5.3a.854.854,0,1,1-1.709,0ZM33.633,30.215a3.422,3.422,0,0,1-3.418,3.418H4.785a3.422,3.422,0,0,1-3.418-3.418V7.861A3.422,3.422,0,0,1,4.785,4.443H6.05V5.3a2.222,2.222,0,1,0,4.443,0V4.443H12.2V5.3a2.222,2.222,0,0,0,4.443,0V4.443h1.709V5.3a2.222,2.222,0,0,0,4.443,0V4.443h1.709V5.3a2.222,2.222,0,0,0,4.443,0V4.443h1.265a3.422,3.422,0,0,1,3.418,3.418Z" transform="translate(0)"/>
      <path id="패스_571" data-name="패스 571" class="cls-1" d="M72.215,135H56.38a.675.675,0,1,0,0,1.349H72.215a.353.353,0,0,1,.343.337V155.71a.353.353,0,0,1-.343.337h-25.5a.353.353,0,0,1-.343-.337V136.686a.353.353,0,0,1,.343-.337h3.5a.675.675,0,1,0,0-1.349h-3.5A1.7,1.7,0,0,0,45,136.686V155.71a1.7,1.7,0,0,0,1.714,1.686h25.5a1.7,1.7,0,0,0,1.714-1.686V136.686A1.7,1.7,0,0,0,72.215,135Z" transform="translate(-41.964 -125.432)"/>
      <path id="패스_572" data-name="패스 572" class="cls-2" d="M162.394,215.539a1.246,1.246,0,0,0,.279,1.251l2,2.116-.4,2.8a1.247,1.247,0,0,0,1.768,1.316l2.637-1.255L171.2,223a1.248,1.248,0,0,0,1.816-1.266l-.378-2.892,1.972-2.038a1.248,1.248,0,0,0-.667-2.1l-2.865-.534-1.329-2.506a1.248,1.248,0,0,0-2.2-.015l-1.393,2.56-2.8.49a1.246,1.246,0,0,0-.97.838Z" transform="translate(-151.149 -196.473)"/>
      <path id="패스_573" data-name="패스 573" class="cls-1" d="M156.676,136.349a.675.675,0,0,0,0-1.349h0a.675.675,0,0,0,0,1.349Z" transform="translate(-145.331 -125.767)"/>
    </g>
  </g>
</svg>
