<svg xmlns="http://www.w3.org/2000/svg" width="24" height="24" viewBox="0 0 24 24">
    <defs>
        <style>
            .cls-2{fill:#111}
        </style>
    </defs>
    <g id="그룹_516" transform="translate(-296 -49)">
        <g id="running" transform="translate(299.749 7.783)">
            <path id="패스_160" d="M8.8 173.328l-7.852-7.854-.591.585a1.165 1.165 0 0 0 0 1.646L7 174.349q.063.063.128.123H4.506a.5.5 0 0 0 0 1h11.043a1.5 1.5 0 0 0 1.5-1.5v-.5H9.155a.5.5 0 0 1-.355-.144z" class="cls-2" transform="translate(-.016 -115.5)"/>
            <path id="패스_161" d="M2.495 436H.5a.5.5 0 0 0 0 1h2a.5.5 0 0 0 0-1z" class="cls-2" transform="translate(0 -377.028)"/>
            <path id="패스_162" d="M2.495 376H.5a.5.5 0 0 0 0 1h2a.5.5 0 0 0 0-1z" class="cls-2" transform="translate(0 -319.024)"/>
            <path id="패스_163" d="M61.588 53.65h-1.815l-1.681.56a.5.5 0 0 1-.316-.947l1.128-.376-.5-.7-1.461.487a.5.5 0 0 1-.316-.947l1.832-.611a1.845 1.845 0 0 0-1.448-1.7 2.325 2.325 0 0 1-1.8-1.893 1.821 1.821 0 0 0-3.075-1l-2.776 2.749 7.7 7.7h7.684v-.162a3.163 3.163 0 0 0-3.156-3.16z" class="cls-2" transform="translate(-47.718)"/>
        </g>
    </g>
</svg>
